# xmcd
#
# Track frame offsets:
#	150
#	24172
#	45847
#	61460
#	79772
#	112210
#	125872
#	141810
#	158510
#	179972
#
# Disc length: 2748 seconds
#
# Revision: 1
# Processed by: cddbd v1.5.1PL0 Copyright (c) Steve Scherf et al.
# Submitted via: EasyCDDAExtractor 7.0.6.1
#
DISCID=870aba0a
DTITLE=Brownie McGhee and Sonny Terry - at the 2nd Fred
DYEAR=1962
DGENRE=Blues
TTITLE0=Evil Hearted Me
TTITLE1=Sick Man
TTITLE2=Barking Bull Dog
TTITLE3=Spread The News Around
TTITLE4=Backwater Blues
TTITLE5=Custard Pie
TTITLE6=Wholesale Dealin' Papa
TTITLE7=Motorcycle Blues
TTITLE8=Hand in Hand
TTITLE9=I Woke Up One Morning And I Could Hardly See
EXTD=
EXTT0=
EXTT1=
EXTT2=
EXTT3=
EXTT4=
EXTT5=
EXTT6=
EXTT7=
EXTT8=
EXTT9=
PLAYORDER=
